<svg width="60" height="60" viewBox="0 0 60 60" fill="none" xmlns="http://www.w3.org/2000/svg">
<g filter="url(#filter0_d_7541_788)">
<rect x="6" y="4" width="48" height="48" rx="24" fill="url(#paint0_linear_7541_788)"/>
<rect x="5" y="3" width="50" height="50" rx="25" stroke="white" stroke-width="2"/>
<path fill-rule="evenodd" clip-rule="evenodd" d="M34.2414 18H25.7588C24.9538 18 24.2895 18 23.7483 18.0442C23.1862 18.0901 22.6695 18.1887 22.1841 18.436C21.4315 18.8195 20.8196 19.4314 20.4361 20.184C20.1888 20.6694 20.0902 21.1861 20.0443 21.7482C20.0001 22.2894 20.0001 22.9537 20.0001 23.7587L20 30.1376C19.9996 30.933 19.9993 31.5236 20.1364 32.0353C20.5063 33.4156 21.5845 34.4938 22.9648 34.8637C23.2723 34.9461 23.6083 34.9789 24.0001 34.9918L24.0001 36.371C24 36.6062 24 36.846 24.0178 37.0425C24.0349 37.2305 24.0801 37.5852 24.3278 37.8955C24.6128 38.2525 25.0449 38.4602 25.5017 38.4597C25.8987 38.4593 26.2039 38.273 26.3614 38.1689C26.526 38.06 26.7132 37.9102 26.8969 37.7632L29.31 35.8327C29.8286 35.4178 29.9826 35.3007 30.1425 35.219C30.303 35.137 30.4738 35.0771 30.6504 35.0408C30.8263 35.0047 31.0197 35 31.6838 35H34.2414C35.0464 35 35.7107 35 36.2519 34.9558C36.814 34.9099 37.3307 34.8113 37.8161 34.564C38.5687 34.1805 39.1806 33.5686 39.5641 32.816C39.8114 32.3306 39.91 31.8139 39.9559 31.2518C40.0001 30.7106 40.0001 30.0463 40.0001 29.2413V23.7587C40.0001 22.9537 40.0001 22.2894 39.9559 21.7482C39.91 21.1861 39.8114 20.6694 39.5641 20.184C39.1806 19.4314 38.5687 18.8195 37.8161 18.436C37.3307 18.1887 36.814 18.0901 36.2519 18.0442C35.7107 18 35.0464 18 34.2414 18ZM29.4887 23.6721C29.7428 23.5227 30.0417 23.4681 30.3322 23.518C30.6228 23.5678 30.8863 23.7189 31.0762 23.9444C31.266 24.1699 31.37 24.4554 31.3695 24.7502V24.7517C31.3695 24.9703 31.1923 25.2714 30.6907 25.6059C30.4702 25.7528 30.2427 25.8673 30.0664 25.9457C29.9796 25.9842 29.9087 26.0125 29.8618 26.0304C29.8384 26.0393 29.8213 26.0455 29.8114 26.049L29.8023 26.0522L29.8038 26.0517C29.2806 26.2268 28.998 26.7927 29.1725 27.3162C29.3454 27.835 29.9218 28.1201 30.4386 27.9483C30.4841 27.933 30.529 27.9164 30.5738 27.8994C30.6499 27.8704 30.7546 27.8284 30.8786 27.7733C31.1238 27.6643 31.4584 27.4978 31.8001 27.27C32.4225 26.855 33.3693 26.0322 33.3695 24.7521C33.3704 23.9854 33.1 23.243 32.6062 22.6564C32.1122 22.0695 31.4264 21.6765 30.6703 21.5468C29.9143 21.4171 29.1367 21.5592 28.4753 21.9478C27.814 22.3365 27.3115 22.9467 27.0569 23.6704C26.8737 24.1914 27.1474 24.7623 27.6684 24.9456C28.1894 25.1288 28.7603 24.8551 28.9436 24.3341C29.0414 24.056 29.2345 23.8215 29.4887 23.6721ZM30.1502 29C29.5979 29 29.1502 29.4477 29.1502 30C29.1502 30.5523 29.5979 31 30.1502 31H30.1602C30.7125 31 31.1602 30.5523 31.1602 30C31.1602 29.4477 30.7125 29 30.1602 29H30.1502Z" fill="#3381FF"/>
</g>
<defs>
<filter id="filter0_d_7541_788" x="0" y="0" width="60" height="60" filterUnits="userSpaceOnUse" color-interpolation-filters="sRGB">
<feFlood flood-opacity="0" result="BackgroundImageFix"/>
<feColorMatrix in="SourceAlpha" type="matrix" values="0 0 0 0 0 0 0 0 0 0 0 0 0 0 0 0 0 0 127 0" result="hardAlpha"/>
<feOffset dy="2"/>
<feGaussianBlur stdDeviation="2"/>
<feComposite in2="hardAlpha" operator="out"/>
<feColorMatrix type="matrix" values="0 0 0 0 0 0 0 0 0 0 0 0 0 0 0 0 0 0 0.08 0"/>
<feBlend mode="normal" in2="BackgroundImageFix" result="effect1_dropShadow_7541_788"/>
<feBlend mode="normal" in="SourceGraphic" in2="effect1_dropShadow_7541_788" result="shape"/>
</filter>
<linearGradient id="paint0_linear_7541_788" x1="30" y1="4" x2="30" y2="52" gradientUnits="userSpaceOnUse">
<stop stop-color="#ECF0F1"/>
<stop offset="1" stop-color="white"/>
</linearGradient>
</defs>
</svg>
