<svg width="322" height="60" viewBox="0 0 322 60" fill="none" xmlns="http://www.w3.org/2000/svg">
<g filter="url(#filter0_d_7541_1271)">
<rect x="6" y="4" width="48" height="48" rx="24" fill="url(#paint0_linear_7541_1271)"/>
<rect x="5" y="3" width="50" height="50" rx="25" stroke="white" stroke-width="2"/>
<path d="M20.1335 24.1814C19.8336 23.9672 19.6836 23.8601 19.5529 23.8462C19.3574 23.8254 19.1614 23.9262 19.0647 24.0974C19 24.2119 19 24.3942 19 24.7587V31.2413C19 32.0463 19 32.7106 19.0442 33.2518C19.0901 33.8139 19.1887 34.3306 19.436 34.816C19.8195 35.5686 20.4314 36.1805 21.184 36.564C21.6694 36.8113 22.1861 36.9099 22.7482 36.9558C23.2894 37 23.9537 37 24.7587 37H35.2413C36.0463 37 36.7106 37 37.2518 36.9558C37.8139 36.9099 38.3306 36.8113 38.816 36.564C39.5686 36.1805 40.1805 35.5686 40.564 34.816C40.8113 34.3306 40.9099 33.8139 40.9558 33.2518C41 32.7106 41 32.0463 41 31.2413V24.7587C41 24.58 41 24.4907 40.9836 24.4283C40.9096 24.1463 40.603 23.9856 40.329 24.0853C40.2684 24.1074 40.194 24.1589 40.0453 24.2618L32.3032 29.6219C31.7542 30.0032 31.2722 30.3379 30.7247 30.4706C30.2458 30.5867 29.7456 30.583 29.2685 30.4599C28.7229 30.3191 28.2459 29.9774 27.7026 29.5881L20.1335 24.1814Z" fill="#3381FF"/>
<path d="M40.1328 21.7687C40.3174 21.6409 40.4097 21.577 40.4664 21.4742C40.5104 21.3944 40.5356 21.268 40.5255 21.1775C40.5125 21.0608 40.463 20.9838 40.3638 20.8297C39.9839 20.2396 39.4373 19.7526 38.816 19.436C38.3306 19.1887 37.8139 19.0901 37.2518 19.0442C36.7106 19 36.0463 19 35.2413 19H24.7587C23.9537 19 23.2894 19 22.7482 19.0442C22.1861 19.0901 21.6694 19.1887 21.184 19.436C20.625 19.7208 20.1418 20.1326 19.7744 20.6333C19.6588 20.7909 19.601 20.8697 19.5819 20.9892C19.567 21.0827 19.5878 21.2126 19.6312 21.2967C19.6866 21.4044 19.7827 21.473 19.9749 21.6103L28.75 27.8783C29.4773 28.3977 29.6316 28.4881 29.7681 28.5233C29.9272 28.5644 30.0939 28.5656 30.2535 28.5269C30.3906 28.4937 30.5463 28.4056 31.281 27.8969L40.1328 21.7687Z" fill="#3381FF"/>
</g>
<defs>
<filter id="filter0_d_7541_1271" x="0" y="0" width="60" height="60" filterUnits="userSpaceOnUse" color-interpolation-filters="sRGB">
<feFlood flood-opacity="0" result="BackgroundImageFix"/>
<feColorMatrix in="SourceAlpha" type="matrix" values="0 0 0 0 0 0 0 0 0 0 0 0 0 0 0 0 0 0 127 0" result="hardAlpha"/>
<feOffset dy="2"/>
<feGaussianBlur stdDeviation="2"/>
<feComposite in2="hardAlpha" operator="out"/>
<feColorMatrix type="matrix" values="0 0 0 0 0 0 0 0 0 0 0 0 0 0 0 0 0 0 0.08 0"/>
<feBlend mode="normal" in2="BackgroundImageFix" result="effect1_dropShadow_7541_1271"/>
<feBlend mode="normal" in="SourceGraphic" in2="effect1_dropShadow_7541_1271" result="shape"/>
</filter>
<linearGradient id="paint0_linear_7541_1271" x1="30" y1="4" x2="30" y2="52" gradientUnits="userSpaceOnUse">
<stop stop-color="#ECF0F1"/>
<stop offset="1" stop-color="white"/>
</linearGradient>
</defs>
</svg>
