<svg width="60" height="60" viewBox="0 0 60 60" fill="none" xmlns="http://www.w3.org/2000/svg">
<g filter="url(#filter0_d_7541_784)">
<rect x="6" y="4" width="48" height="48" rx="24" fill="url(#paint0_linear_7541_784)"/>
<rect x="5" y="3" width="50" height="50" rx="25" stroke="white" stroke-width="2"/>
<path fill-rule="evenodd" clip-rule="evenodd" d="M34.2414 18H25.7588C24.9538 18 24.2895 18 23.7483 18.0442C23.1862 18.0901 22.6695 18.1887 22.1841 18.436C21.4315 18.8195 20.8196 19.4314 20.4361 20.184C20.1888 20.6694 20.0902 21.1861 20.0443 21.7482C20.0001 22.2894 20.0001 22.9537 20.0001 23.7587L20 30.1376C19.9996 30.933 19.9993 31.5236 20.1364 32.0353C20.5063 33.4156 21.5845 34.4938 22.9648 34.8637C23.2723 34.9461 23.6083 34.9789 24.0001 34.9918L24.0001 36.371C24 36.6062 24 36.846 24.0178 37.0425C24.0349 37.2305 24.0801 37.5852 24.3278 37.8955C24.6128 38.2525 25.0449 38.4602 25.5017 38.4597C25.8987 38.4593 26.2039 38.273 26.3614 38.1689C26.526 38.06 26.7132 37.9102 26.8969 37.7632L29.31 35.8327C29.8286 35.4178 29.9826 35.3007 30.1425 35.219C30.303 35.137 30.4738 35.0771 30.6504 35.0408C30.8263 35.0047 31.0197 35 31.6838 35H34.2414C35.0464 35 35.7107 35 36.2519 34.9558C36.814 34.9099 37.3307 34.8113 37.8161 34.564C38.5687 34.1805 39.1806 33.5686 39.5641 32.816C39.8114 32.3306 39.91 31.8139 39.9559 31.2518C40.0001 30.7106 40.0001 30.0463 40.0001 29.2413V23.7587C40.0001 22.9537 40.0001 22.2894 39.9559 21.7482C39.91 21.1861 39.8114 20.6694 39.5641 20.184C39.1806 19.4314 38.5687 18.8195 37.8161 18.436C37.3307 18.1887 36.814 18.0901 36.2519 18.0442C35.7107 18 35.0464 18 34.2414 18ZM24 26.5C24 25.6716 24.6716 25 25.5 25C26.3284 25 27 25.6716 27 26.5C27 27.3284 26.3284 28 25.5 28C24.6716 28 24 27.3284 24 26.5ZM28.5 26.5C28.5 25.6716 29.1716 25 30 25C30.8284 25 31.5 25.6716 31.5 26.5C31.5 27.3284 30.8284 28 30 28C29.1716 28 28.5 27.3284 28.5 26.5ZM34.5 25C33.6716 25 33 25.6716 33 26.5C33 27.3284 33.6716 28 34.5 28C35.3284 28 36 27.3284 36 26.5C36 25.6716 35.3284 25 34.5 25Z" fill="#3381FF"/>
</g>
<defs>
<filter id="filter0_d_7541_784" x="0" y="0" width="60" height="60" filterUnits="userSpaceOnUse" color-interpolation-filters="sRGB">
<feFlood flood-opacity="0" result="BackgroundImageFix"/>
<feColorMatrix in="SourceAlpha" type="matrix" values="0 0 0 0 0 0 0 0 0 0 0 0 0 0 0 0 0 0 127 0" result="hardAlpha"/>
<feOffset dy="2"/>
<feGaussianBlur stdDeviation="2"/>
<feComposite in2="hardAlpha" operator="out"/>
<feColorMatrix type="matrix" values="0 0 0 0 0 0 0 0 0 0 0 0 0 0 0 0 0 0 0.08 0"/>
<feBlend mode="normal" in2="BackgroundImageFix" result="effect1_dropShadow_7541_784"/>
<feBlend mode="normal" in="SourceGraphic" in2="effect1_dropShadow_7541_784" result="shape"/>
</filter>
<linearGradient id="paint0_linear_7541_784" x1="30" y1="4" x2="30" y2="52" gradientUnits="userSpaceOnUse">
<stop stop-color="#ECF0F1"/>
<stop offset="1" stop-color="white"/>
</linearGradient>
</defs>
</svg>
